<svg width="47" height="20" viewBox="0 0 47 20" fill="none" xmlns="http://www.w3.org/2000/svg">
<rect x="0.412281" y="0.412281" width="46.1754" height="18.9649" rx="3.71053" stroke="white" stroke-width="0.824561"/>
<path d="M14.7713 12.5392C14.7713 12.1742 14.6424 11.895 14.3847 11.7018C14.1271 11.5042 13.6633 11.2981 12.9933 11.0833C12.3233 10.8643 11.793 10.6496 11.4022 10.4391C10.3371 9.86367 9.80457 9.0885 9.80457 8.11362C9.80457 7.60686 9.94629 7.15593 10.2297 6.76083C10.5175 6.36143 10.9276 6.05007 11.4601 5.82675C11.997 5.60344 12.5982 5.49178 13.2639 5.49178C13.9338 5.49178 14.5308 5.61417 15.0547 5.85896C15.5786 6.09946 15.9845 6.44088 16.2722 6.88322C16.5643 7.32557 16.7103 7.82803 16.7103 8.39063H14.7777C14.7777 7.96117 14.6424 7.62834 14.3719 7.39213C14.1013 7.15164 13.7212 7.03139 13.2316 7.03139C12.7592 7.03139 12.3921 7.13231 12.1301 7.33416C11.8681 7.53171 11.7371 7.79368 11.7371 8.12007C11.7371 8.42498 11.8896 8.68051 12.1945 8.88665C12.5037 9.09279 12.9568 9.28605 13.5537 9.46642C14.6532 9.7971 15.4541 10.2072 15.9566 10.6968C16.459 11.1864 16.7103 11.7962 16.7103 12.5263C16.7103 13.338 16.4032 13.9757 15.7891 14.4396C15.175 14.8991 14.3482 15.1288 13.309 15.1288C12.5875 15.1288 11.9304 14.9979 11.3377 14.7359C10.7451 14.4696 10.292 14.1067 9.9785 13.6472C9.66929 13.1877 9.51468 12.6552 9.51468 12.0496H11.4537C11.4537 13.0846 12.0721 13.6021 13.309 13.6021C13.7685 13.6021 14.1271 13.5098 14.3847 13.3251C14.6424 13.1361 14.7713 12.8742 14.7713 12.5392ZM19.7186 8.79002C20.2125 8.19737 20.8331 7.90104 21.5803 7.90104C23.092 7.90104 23.8586 8.77929 23.8801 10.5358V15H22.0184V10.5873C22.0184 10.1879 21.9325 9.89373 21.7607 9.70477C21.5889 9.51151 21.3033 9.41489 20.9039 9.41489C20.3585 9.41489 19.9634 9.62532 19.7186 10.0462V15H17.8569V5.10526H19.7186V8.79002ZM27.2492 15H25.381V8.02988H27.2492V15ZM25.2715 6.22615C25.2715 5.947 25.3639 5.71724 25.5485 5.53687C25.7375 5.3565 25.993 5.26631 26.3151 5.26631C26.6329 5.26631 26.8863 5.3565 27.0753 5.53687C27.2642 5.71724 27.3587 5.947 27.3587 6.22615C27.3587 6.50959 27.2621 6.7415 27.0688 6.92188C26.8799 7.10225 26.6286 7.19243 26.3151 7.19243C26.0016 7.19243 25.7482 7.10225 25.555 6.92188C25.366 6.7415 25.2715 6.50959 25.2715 6.22615ZM29.2977 15V9.39556H28.2606V8.02988H29.2977V7.43723C29.2977 6.65561 29.521 6.05007 29.9677 5.62061C30.4186 5.18686 31.0478 4.96998 31.8551 4.96998C32.1128 4.96998 32.4285 5.01293 32.8021 5.09882L32.7828 6.5418C32.6282 6.50315 32.4392 6.48383 32.2159 6.48383C31.5159 6.48383 31.1659 6.81236 31.1659 7.46944V8.02988H32.5509V9.39556H31.1659V15H29.2977ZM35.746 6.31634V8.02988H36.9378V9.39556H35.746V12.8742C35.746 13.1319 35.7954 13.3165 35.8942 13.4282C35.993 13.5398 36.1819 13.5957 36.4611 13.5957C36.6672 13.5957 36.8497 13.5806 37.0086 13.5506V14.9613C36.6436 15.073 36.2678 15.1288 35.8813 15.1288C34.5758 15.1288 33.9101 14.4696 33.8843 13.1512V9.39556H32.8665V8.02988H33.8843V6.31634H35.746Z" fill="white"/>
</svg>
