{
    "asset" : {
        "generator" : "Khronos glTF Blender I/O v1.6.16",
        "version" : "2.0"
    },
    "scene" : 0,
    "scenes" : [
        {
            "name" : "Scene",
            "nodes" : [
                0
            ]
        }
    ],
    "nodes" : [
        {
            "mesh" : 0,
            "name" : "Underplane",
            "rotation" : [
                0.7071068286895752,
                0,
                0,
                0.7071067094802856
            ],
            "scale" : [
                0.009999999776482582,
                0.009999999776482582,
                0.009999999776482582
            ]
        }
    ],
    "materials" : [
        {
            "doubleSided" : true,
            "name" : "Material.001",
            "pbrMetallicRoughness" : {
                "baseColorFactor" : [
                    0.800000011920929,
                    0.800000011920929,
                    0.800000011920929,
                    1
                ],
                "metallicFactor" : 0,
                "roughnessFactor" : 0.5
            }
        },
        {
            "doubleSided" : true,
            "name" : "Material.012",
            "pbrMetallicRoughness" : {
                "baseColorTexture" : {
                    "index" : 0
                },
                "metallicFactor" : 0,
                "roughnessFactor" : 0.5
            }
        },
        {
            "doubleSided" : true,
            "name" : "Material.013",
            "pbrMetallicRoughness" : {
                "baseColorTexture" : {
                    "index" : 1
                },
                "metallicFactor" : 0,
                "roughnessFactor" : 0.5
            }
        }
    ],
    "meshes" : [
        {
            "name" : "Underplane",
            "primitives" : [
                {
                    "attributes" : {
                        "POSITION" : 0,
                        "NORMAL" : 1,
                        "TEXCOORD_0" : 2
                    },
                    "indices" : 3,
                    "material" : 0
                },
                {
                    "attributes" : {
                        "POSITION" : 4,
                        "NORMAL" : 5,
                        "TEXCOORD_0" : 6
                    },
                    "indices" : 7,
                    "material" : 1
                },
                {
                    "attributes" : {
                        "POSITION" : 8,
                        "NORMAL" : 9,
                        "TEXCOORD_0" : 10
                    },
                    "indices" : 11,
                    "material" : 2
                }
            ]
        }
    ],
    "textures" : [
        {
            "sampler" : 0,
            "source" : 0
        },
        {
            "sampler" : 0,
            "source" : 1
        }
    ],
    "images" : [
        {
            "mimeType" : "image/jpeg",
            "name" : "Wood_1",
            "uri" : "textures/Wood_1.jpg"
        },
        {
            "mimeType" : "image/jpeg",
            "name" : "Carpent_1",
            "uri" : "textures/Carpent_1.jpg"
        }
    ],
    "accessors" : [
        {
            "bufferView" : 0,
            "componentType" : 5126,
            "count" : 189,
            "max" : [
                16576.330078125,
                -5479.17431640625,
                -148.88026428222656
            ],
            "min" : [
                3894.3916015625,
                -10189.1748046875,
                -4555.74609375
            ],
            "type" : "VEC3"
        },
        {
            "bufferView" : 1,
            "componentType" : 5126,
            "count" : 189,
            "type" : "VEC3"
        },
        {
            "bufferView" : 2,
            "componentType" : 5126,
            "count" : 189,
            "type" : "VEC2"
        },
        {
            "bufferView" : 3,
            "componentType" : 5123,
            "count" : 360,
            "type" : "SCALAR"
        },
        {
            "bufferView" : 4,
            "componentType" : 5126,
            "count" : 16,
            "max" : [
                16576.330078125,
                -5479.17431640625,
                -448.8802490234375
            ],
            "min" : [
                4094.3916015625,
                -10189.1748046875,
                -3304.88037109375
            ],
            "type" : "VEC3"
        },
        {
            "bufferView" : 5,
            "componentType" : 5126,
            "count" : 16,
            "type" : "VEC3"
        },
        {
            "bufferView" : 6,
            "componentType" : 5126,
            "count" : 16,
            "type" : "VEC2"
        },
        {
            "bufferView" : 7,
            "componentType" : 5123,
            "count" : 24,
            "type" : "SCALAR"
        },
        {
            "bufferView" : 8,
            "componentType" : 5126,
            "count" : 4,
            "max" : [
                15838.9169921875,
                -5879.17431640625,
                -473.107666015625
            ],
            "min" : [
                13238.9169921875,
                -8513.03125,
                -473.10809326171875
            ],
            "type" : "VEC3"
        },
        {
            "bufferView" : 9,
            "componentType" : 5126,
            "count" : 4,
            "type" : "VEC3"
        },
        {
            "bufferView" : 10,
            "componentType" : 5126,
            "count" : 4,
            "type" : "VEC2"
        },
        {
            "bufferView" : 11,
            "componentType" : 5123,
            "count" : 6,
            "type" : "SCALAR"
        }
    ],
    "bufferViews" : [
        {
            "buffer" : 0,
            "byteLength" : 2268,
            "byteOffset" : 0
        },
        {
            "buffer" : 0,
            "byteLength" : 2268,
            "byteOffset" : 2268
        },
        {
            "buffer" : 0,
            "byteLength" : 1512,
            "byteOffset" : 4536
        },
        {
            "buffer" : 0,
            "byteLength" : 720,
            "byteOffset" : 6048
        },
        {
            "buffer" : 0,
            "byteLength" : 192,
            "byteOffset" : 6768
        },
        {
            "buffer" : 0,
            "byteLength" : 192,
            "byteOffset" : 6960
        },
        {
            "buffer" : 0,
            "byteLength" : 128,
            "byteOffset" : 7152
        },
        {
            "buffer" : 0,
            "byteLength" : 48,
            "byteOffset" : 7280
        },
        {
            "buffer" : 0,
            "byteLength" : 48,
            "byteOffset" : 7328
        },
        {
            "buffer" : 0,
            "byteLength" : 48,
            "byteOffset" : 7376
        },
        {
            "buffer" : 0,
            "byteLength" : 32,
            "byteOffset" : 7424
        },
        {
            "buffer" : 0,
            "byteLength" : 12,
            "byteOffset" : 7456
        }
    ],
    "samplers" : [
        {
            "magFilter" : 9729,
            "minFilter" : 9987
        }
    ],
    "buffers" : [
        {
            "byteLength" : 7468,
            "uri" : "BUnderfloor.bin"
        }
    ]
}
