{
    "asset" : {
        "generator" : "Khronos glTF Blender I/O v1.6.16",
        "version" : "2.0"
    },
    "scene" : 0,
    "scenes" : [
        {
            "name" : "Scene",
            "nodes" : [
                0
            ]
        }
    ],
    "nodes" : [
        {
            "mesh" : 0,
            "name" : "walls.001",
            "rotation" : [
                0.7071068286895752,
                0,
                0,
                0.7071067094802856
            ],
            "scale" : [
                0.009999999776482582,
                0.009999999776482582,
                0.009999999776482582
            ]
        }
    ],
    "materials" : [
        {
            "doubleSided" : true,
            "name" : "Material.001",
            "pbrMetallicRoughness" : {}
        },
        {
            "doubleSided" : true,
            "name" : "Material.002",
            "pbrMetallicRoughness" : {}
        },
        {
            "doubleSided" : true,
            "name" : "Material.003",
            "pbrMetallicRoughness" : {}
        }
    ],
    "meshes" : [
        {
            "name" : "walls.001",
            "primitives" : [
                {
                    "attributes" : {
                        "POSITION" : 0,
                        "NORMAL" : 1,
                        "TEXCOORD_0" : 2
                    },
                    "indices" : 3,
                    "material" : 0
                },
                {
                    "attributes" : {
                        "POSITION" : 4,
                        "NORMAL" : 5,
                        "TEXCOORD_0" : 6
                    },
                    "indices" : 7,
                    "material" : 1
                },
                {
                    "attributes" : {
                        "POSITION" : 8,
                        "NORMAL" : 9,
                        "TEXCOORD_0" : 10
                    },
                    "indices" : 11,
                    "material" : 2
                }
            ]
        }
    ],
    "accessors" : [
        {
            "bufferView" : 0,
            "componentType" : 5126,
            "count" : 585,
            "max" : [
                16876.330078125,
                -3650.572998046875,
                -448.8802490234375
            ],
            "min" : [
                3794.3916015625,
                -10489.1748046875,
                -6160.365234375
            ],
            "type" : "VEC3"
        },
        {
            "bufferView" : 1,
            "componentType" : 5126,
            "count" : 585,
            "type" : "VEC3"
        },
        {
            "bufferView" : 2,
            "componentType" : 5126,
            "count" : 585,
            "type" : "VEC2"
        },
        {
            "bufferView" : 3,
            "componentType" : 5123,
            "count" : 1143,
            "type" : "SCALAR"
        },
        {
            "bufferView" : 4,
            "componentType" : 5126,
            "count" : 185,
            "max" : [
                12238.2216796875,
                -3650.572998046875,
                -448.8802490234375
            ],
            "min" : [
                3794.3916015625,
                -10489.1748046875,
                -6160.365234375
            ],
            "type" : "VEC3"
        },
        {
            "bufferView" : 5,
            "componentType" : 5126,
            "count" : 185,
            "type" : "VEC3"
        },
        {
            "bufferView" : 6,
            "componentType" : 5126,
            "count" : 185,
            "type" : "VEC2"
        },
        {
            "bufferView" : 7,
            "componentType" : 5123,
            "count" : 429,
            "type" : "SCALAR"
        },
        {
            "bufferView" : 8,
            "componentType" : 5126,
            "count" : 65,
            "max" : [
                16876.330078125,
                -5179.17431640625,
                -448.8802490234375
            ],
            "min" : [
                12083.828125,
                -10489.1748046875,
                -4123.197265625
            ],
            "type" : "VEC3"
        },
        {
            "bufferView" : 9,
            "componentType" : 5126,
            "count" : 65,
            "type" : "VEC3"
        },
        {
            "bufferView" : 10,
            "componentType" : 5126,
            "count" : 65,
            "type" : "VEC2"
        },
        {
            "bufferView" : 11,
            "componentType" : 5123,
            "count" : 126,
            "type" : "SCALAR"
        }
    ],
    "bufferViews" : [
        {
            "buffer" : 0,
            "byteLength" : 7020,
            "byteOffset" : 0
        },
        {
            "buffer" : 0,
            "byteLength" : 7020,
            "byteOffset" : 7020
        },
        {
            "buffer" : 0,
            "byteLength" : 4680,
            "byteOffset" : 14040
        },
        {
            "buffer" : 0,
            "byteLength" : 2286,
            "byteOffset" : 18720
        },
        {
            "buffer" : 0,
            "byteLength" : 2220,
            "byteOffset" : 21008
        },
        {
            "buffer" : 0,
            "byteLength" : 2220,
            "byteOffset" : 23228
        },
        {
            "buffer" : 0,
            "byteLength" : 1480,
            "byteOffset" : 25448
        },
        {
            "buffer" : 0,
            "byteLength" : 858,
            "byteOffset" : 26928
        },
        {
            "buffer" : 0,
            "byteLength" : 780,
            "byteOffset" : 27788
        },
        {
            "buffer" : 0,
            "byteLength" : 780,
            "byteOffset" : 28568
        },
        {
            "buffer" : 0,
            "byteLength" : 520,
            "byteOffset" : 29348
        },
        {
            "buffer" : 0,
            "byteLength" : 252,
            "byteOffset" : 29868
        }
    ],
    "buffers" : [
        {
            "byteLength" : 30120,
            "uri" : "data:application/octet-stream;base64,"
        }
    ]
}
